# xmcd
#
# Track frame offsets:
#	150
#	17305
#	32992
#	48026
#	64599
#	78852
#	98559
#	117408
#	132088
#	152121
#	172648
#	188966
#	204717
#
# Disc length: 2968 seconds
#
# Revision: 1
# Processed by: cddbd v1.5.2PL0 Copyright (c) Steve Scherf et al.
# Submitted via: audiograbber 1.83.01
#
DISCID=970b960d
DTITLE=Jamie McDell - Ask Me Anything
DYEAR=2015
DGENRE=Country
TTITLE0=Falling
TTITLE1=Fly Honeys
TTITLE2=Dumb
TTITLE3=Five Years From Now
TTITLE4=Back Of My Mind
TTITLE5=Story Of John
TTITLE6=Moon Shines Red
TTITLE7=Crash
TTITLE8=Six Miles
TTITLE9=Wicked Man
TTITLE10=My Old Hands
TTITLE11=This Time
TTITLE12=Luck
EXTD=
EXTT0=
EXTT1=
EXTT2=
EXTT3=
EXTT4=
EXTT5=
EXTT6=
EXTT7=
EXTT8=
EXTT9=
EXTT10=
EXTT11=
EXTT12=
PLAYORDER=
